{"title":"BBC Proms 2012 - 10. Barenboim Conducts Beethoven Symphonies 3 &amp;","uid":7467699,"size":1455525879,"categoryP":"video","categoryS":"music_videos","magnet":"?xt=urn:btih:dae7956f7fc6c075f27539be20995dce28c0a9b6&amp;dn=BBC+Proms+2012+-+10.+Barenboim+Conducts+Beethoven+Symphonies+3+%26&amp;tr=udp%3A%2F%2Ftracker.openbittorrent.com%3A80&amp;tr=udp%3A%2F%2Fopen.demonii.com%3A1337&amp;tr=udp%3A%2F%2Ftracker.coppersurfer.tk%3A6969&amp;tr=udp%3A%2F%2Fexodus.desync.com%3A6969","seeders":2,"leechers":0,"uploader":"deandominic","files":3,"time":1343051331,"description":"Daniel Barenboim and his youthful ensemble relish the energy of Beethoven's Fourth Symphony before tackling the 'Eroica', one of the irrefutable mould-breakers of classical music. Between these peaks, Boulez's Dialogue de l'ombre double introduces another kind of theatre, the clarinet's electronic double becoming more 'real' than the soloist physically present.\n\nBeethoven - Symphony No. 4 in B flat major (35 mins)\nPierre Boulez - Dialogue de l'ombre double (20 mins)\nBeethoven - Symphony No. 3 in E flat major, 'Eroica' (50 mins)\n\nFormat                                   : MPEG-4\nFormat profile                           : Base Media\nCodec ID                                 : isom\nFile size                                : 1.36 GiB\nDuration                                 : 2h 9mn\nOverall bit rate mode                    : Constant\nOverall bit rate                         : 1 503 Kbps\n\nVideo\nID                                       : 1\nFormat                                   : AVC\nFormat/Info                              : Advanced Video Codec\nFormat profile                           : &lt;a class=&quot;__cf_email__&quot; href=&quot;/cdn-cgi/l/email-protection&quot; data-cfemail=&quot;266b474f48666a150816&quot;&gt;[email&amp;#160;protected]&lt;/a&gt;&lt;script cf-hash='f9e31' type=&quot;text/javascript&quot;&gt;\n/* &lt;![CDATA[ */!function(){try{var t=&quot;currentScript&quot;in document?document.currentScript:function(){for(var t=document.getElementsByTagName(&quot;script&quot;),e=t.length;e--;)if(t[e].getAttribute(&quot;cf-hash&quot;))return t[e]}();if(t&amp;&amp;t.previousSibling){var e,r,n,i,c=t.previousSibling,a=c.getAttribute(&quot;data-cfemail&quot;);if(a){for(e=&quot;&quot;,r=parseInt(a.substr(0,2),16),n=2;a.length-n;n+=2)i=parseInt(a.substr(n,2),16)^r,e+=String.fromCharCode(i);e=document.createTextNode(e),c.parentNode.replaceChild(e,c)}}}catch(u){}}();/* ]]&gt; */&lt;/script&gt;\nFormat settings, CABAC                   : Yes\nFormat settings, ReFrames                : 4 frames\nCodec ID                                 : avc1\nCodec ID/Info                            : Advanced Video Coding\nDuration                                 : 2h 9mn\nBit rate mode                            : Constant\nBit rate                                 : 1 404 Kbps\nWidth                                    : 832 pixels\nHeight                                   : 468 pixels\nDisplay aspect ratio                     : 16:9\nFrame rate mode                          : Constant\nFrame rate                               : 25.000 fps\nStandard                                 : PAL\nColor space                              : YUV\nChroma subsampling                       : 4:2:0\nBit depth                                : 8 bits\nScan type                                : Progressive\nBits/(Pixel*Frame)                       : 0.144\nStream size                              : 1.26 GiB (93%)\n\nAudio\nID                                       : 2\nFormat                                   : AAC\nFormat/Info                              : Advanced Audio Codec\nFormat profile                           : HE-AAC / LC\nCodec ID                                 : 40\nDuration                                 : 2h 9mn\nBit rate mode                            : Constant\nBit rate                                 : 96.0 Kbps\nChannel(s)                               : 2 channels\nChannel positions                        : Front: L R\nSampling rate                            : 48.0 KHz / 24.0 KHz\nCompression mode                         : Lossy\nStream size                              : 87.5 MiB (6%)\n","torrent":{"xt":"urn:btih:dae7956f7fc6c075f27539be20995dce28c0a9b6","amp;dn":"BBC+Proms+2012+-+10.+Barenboim+Conducts+Beethoven+Symphonies+3+%26","amp;tr":["udp%3A%2F%2Ftracker.openbittorrent.com%3A80","udp%3A%2F%2Fopen.demonii.com%3A1337","udp%3A%2F%2Ftracker.coppersurfer.tk%3A6969","udp%3A%2F%2Fexodus.desync.com%3A6969"],"infoHash":"dae7956f7fc6c075f27539be20995dce28c0a9b6","infoHashBuffer":{"type":"Buffer","data":[218,231,149,111,127,198,192,117,242,117,57,190,32,153,93,206,40,192,169,182]},"announce":[],"urlList":[]}}